<?xml version="1.0" encoding="utf-8"?>
<!-- Generator: Adobe Illustrator 18.1.1, SVG Export Plug-In . SVG Version: 6.00 Build 0)  -->
<svg version="1.1" id="Layer_1" xmlns="http://www.w3.org/2000/svg" xmlns:xlink="http://www.w3.org/1999/xlink" x="0px" y="0px"
	 viewBox="0 0 133.3 134.6" enable-background="new 0 0 133.3 134.6" xml:space="preserve">
<ellipse fill="#FFFFFF" cx="67" cy="69.2" rx="51.7" ry="50.3"/>
<g>
	<g>
		<g id="XMLID_130_">
			<g>
				<path fill="#90C95F" d="M112.3,70.4c0-3.4-0.3-11.5-1-20.4c2.7,5.9,4.2,12.4,4.2,19.3c0,26.1-21.7,47.2-48.5,47.2
					c-8.1,0-15.7-1.9-22.4-5.3c-1.8-13.7-2.8-29.2-2.8-31.4c0-2,0.7-3.7,2-5.1c1.3-1.4,3-2.1,5-2.1c1.9,0,3.8,0.8,5.9,2.6
					c1.3,1.2,4.3,4.4,8.8,9.6c3.8,4.4,7.1,7.4,9.9,9.2c4.1,2.7,8.8,3.9,14,3.9c7.6,0,13.6-2.5,18.1-7.6
					C110,85.2,112.3,78.6,112.3,70.4z"/>
				<path fill="#199DD0" d="M18.4,69.2C18.4,43.2,40.2,22,67,22c9.8,0,18.9,2.8,26.5,7.7c0.8,14.4,1.2,32,1.2,34
					c0,1.8-0.6,3.3-1.7,4.5c-1.1,1.2-2.5,1.8-4.3,1.8c-2,0-4-0.9-6.2-2.7c-1.6-1.3-4.5-4.5-8.9-9.4c-4.3-5-8.1-8.4-11.3-10.3
					c-3.2-1.9-7.1-2.8-11.5-2.8c-7.8,0-14.1,2.9-18.9,8.6c-4.9,5.8-7.3,13.1-7.3,21.9c0,3.1,0.3,10,0.9,18.2
					C21,86.5,18.4,78.2,18.4,69.2z"/>
			</g>
		</g>
	</g>
</g>
</svg>
